<svg xmlns="http://www.w3.org/2000/svg" width="1200" height="780" viewBox="0 0 1200 780" fill="none">
  <defs>
    <linearGradient id="bg" x1="96" y1="36" x2="1100" y2="744" gradientUnits="userSpaceOnUse">
      <stop stop-color="#0F172A"/>
      <stop offset="1" stop-color="#0A0F19"/>
    </linearGradient>
    <linearGradient id="accent" x1="0" y1="0" x2="1" y2="1">
      <stop stop-color="#10B981"/>
      <stop offset="1" stop-color="#14B8A6"/>
    </linearGradient>
  </defs>
  <rect width="1200" height="780" rx="32" fill="url(#bg)"/>
  <rect x="36" y="36" width="192" height="708" rx="24" fill="#0C1422"/>
  <rect x="248" y="36" width="916" height="88" rx="24" fill="#0F1728"/>
  <rect x="72" y="84" width="110" height="14" rx="7" fill="#F8FAFC"/>
  <rect x="72" y="154" width="120" height="48" rx="16" fill="url(#accent)" opacity=".18"/>
  <rect x="72" y="230" width="120" height="16" rx="8" fill="#2B3345"/>
  <rect x="72" y="266" width="98" height="16" rx="8" fill="#2B3345"/>
  <rect x="72" y="302" width="112" height="16" rx="8" fill="#2B3345"/>
  <rect x="72" y="338" width="88" height="16" rx="8" fill="#2B3345"/>
  <rect x="278" y="68" width="186" height="18" rx="9" fill="#F8FAFC"/>
  <rect x="278" y="94" width="118" height="10" rx="5" fill="#6B7280"/>
  <rect x="1020" y="58" width="108" height="40" rx="20" fill="url(#accent)"/>
  <rect x="248" y="148" width="916" height="242" rx="28" fill="#101829"/>
  <rect x="248" y="416" width="916" height="328" rx="28" fill="#101829"/>
  <rect x="276" y="176" width="132" height="14" rx="7" fill="#E5E7EB"/>
  <rect x="432" y="176" width="132" height="14" rx="7" fill="#E5E7EB"/>
  <rect x="588" y="176" width="132" height="14" rx="7" fill="#E5E7EB"/>
  <rect x="744" y="176" width="132" height="14" rx="7" fill="#E5E7EB"/>
  <rect x="276" y="212" width="198" height="150" rx="20" fill="#0C1322"/>
  <rect x="498" y="212" width="198" height="150" rx="20" fill="#0C1322"/>
  <rect x="720" y="212" width="198" height="150" rx="20" fill="#0C1322"/>
  <rect x="942" y="212" width="194" height="150" rx="20" fill="#0C1322"/>
  <rect x="294" y="236" width="96" height="12" rx="6" fill="#F8FAFC"/>
  <rect x="294" y="266" width="162" height="34" rx="12" fill="#152235"/>
  <rect x="294" y="312" width="138" height="24" rx="12" fill="url(#accent)" opacity=".22"/>
  <rect x="516" y="236" width="112" height="12" rx="6" fill="#F8FAFC"/>
  <rect x="516" y="266" width="158" height="34" rx="12" fill="#152235"/>
  <rect x="516" y="312" width="134" height="24" rx="12" fill="url(#accent)" opacity=".22"/>
  <rect x="738" y="236" width="104" height="12" rx="6" fill="#F8FAFC"/>
  <rect x="738" y="266" width="158" height="34" rx="12" fill="#152235"/>
  <rect x="738" y="312" width="146" height="24" rx="12" fill="url(#accent)" opacity=".22"/>
  <rect x="960" y="236" width="88" height="12" rx="6" fill="#F8FAFC"/>
  <rect x="960" y="266" width="146" height="34" rx="12" fill="#152235"/>
  <rect x="960" y="312" width="126" height="24" rx="12" fill="url(#accent)" opacity=".22"/>
  <rect x="276" y="448" width="412" height="264" rx="22" fill="#0C1322"/>
  <rect x="712" y="448" width="424" height="264" rx="22" fill="#0C1322"/>
  <rect x="304" y="478" width="146" height="14" rx="7" fill="#F8FAFC"/>
  <rect x="740" y="478" width="130" height="14" rx="7" fill="#F8FAFC"/>
  <rect x="304" y="520" width="356" height="140" rx="18" fill="#111C2E"/>
  <path d="M334 620L394 572L438 590L500 542L548 566L620 500" stroke="url(#accent)" stroke-width="8" stroke-linecap="round" stroke-linejoin="round"/>
  <circle cx="394" cy="572" r="7" fill="#10B981"/>
  <circle cx="500" cy="542" r="7" fill="#10B981"/>
  <circle cx="620" cy="500" r="7" fill="#10B981"/>
  <rect x="740" y="520" width="368" height="28" rx="14" fill="#111C2E"/>
  <rect x="740" y="568" width="368" height="28" rx="14" fill="#111C2E"/>
  <rect x="740" y="616" width="368" height="28" rx="14" fill="#111C2E"/>
  <rect x="770" y="529" width="142" height="10" rx="5" fill="#E5E7EB"/>
  <rect x="770" y="577" width="164" height="10" rx="5" fill="#E5E7EB"/>
  <rect x="770" y="625" width="136" height="10" rx="5" fill="#E5E7EB"/>
  <rect x="1008" y="526" width="70" height="16" rx="8" fill="url(#accent)" opacity=".72"/>
  <rect x="1000" y="574" width="78" height="16" rx="8" fill="url(#accent)" opacity=".58"/>
  <rect x="1016" y="622" width="62" height="16" rx="8" fill="url(#accent)" opacity=".82"/>
</svg>
